<svg xmlns="http://www.w3.org/2000/svg" width="32" height="146" viewBox="0 0 32 146" style="display: none;">

<symbol id="mouse" width="32" height="146" viewBox="0 0 32 146" fill="none" xmlns="http://www.w3.org/2000/svg">
<g clip-path="url(#clip0_519_795)">
<path fill-rule="evenodd" clip-rule="evenodd" d="M0 16C0 7.16344 7.16344 0 16 0C24.8366 0 32 7.16344 32 16V28C32 36.8366 24.8366 44 16 44H14V43.8762C6.10738 42.892 0 36.1592 0 28V16ZM16 40C22.6274 40 28 34.6274 28 28V16C28 9.37258 22.6274 4 16 4C9.37258 4 4 9.37258 4 16V28C4 34.6274 9.37258 40 16 40Z" fill="#12F7D6"/>
<path d="M17.3334 9.1665V16.4998H14.6667V9.1665H17.3334Z" fill="#12F7D6"/>
</g>
<path d="M16.5 60C16.5 59.7239 16.2761 59.5 16 59.5C15.7239 59.5 15.5 59.7239 15.5 60H16.5ZM16 142.887L18.8868 140L16 137.113L13.1132 140L16 142.887ZM15.5 62.8571C15.5 63.1333 15.7239 63.3571 16 63.3571C16.2761 63.3571 16.5 63.1333 16.5 62.8571H15.5ZM16.5 68.5714C16.5 68.2953 16.2761 68.0714 16 68.0714C15.7239 68.0714 15.5 68.2953 15.5 68.5714H16.5ZM15.5 74.2857C15.5 74.5619 15.7239 74.7857 16 74.7857C16.2761 74.7857 16.5 74.5619 16.5 74.2857H15.5ZM16.5 80C16.5 79.7239 16.2761 79.5 16 79.5C15.7239 79.5 15.5 79.7239 15.5 80H16.5ZM15.5 85.7143C15.5 85.9904 15.7239 86.2143 16 86.2143C16.2761 86.2143 16.5 85.9904 16.5 85.7143H15.5ZM16.5 91.4286C16.5 91.1524 16.2761 90.9286 16 90.9286C15.7239 90.9286 15.5 91.1524 15.5 91.4286H16.5ZM15.5 97.1429C15.5 97.419 15.7239 97.6429 16 97.6429C16.2761 97.6429 16.5 97.419 16.5 97.1429H15.5ZM16.5 102.857C16.5 102.581 16.2761 102.357 16 102.357C15.7239 102.357 15.5 102.581 15.5 102.857H16.5ZM15.5 108.571C15.5 108.848 15.7239 109.071 16 109.071C16.2761 109.071 16.5 108.848 16.5 108.571H15.5ZM16.5 114.286C16.5 114.01 16.2761 113.786 16 113.786C15.7239 113.786 15.5 114.01 15.5 114.286H16.5ZM15.5 120C15.5 120.276 15.7239 120.5 16 120.5C16.2761 120.5 16.5 120.276 16.5 120H15.5ZM16.5 125.714C16.5 125.438 16.2761 125.214 16 125.214C15.7239 125.214 15.5 125.438 15.5 125.714H16.5ZM15.5 131.429C15.5 131.705 15.7239 131.929 16 131.929C16.2761 131.929 16.5 131.705 16.5 131.429H15.5ZM16.5 137.143C16.5 136.867 16.2761 136.643 16 136.643C15.7239 136.643 15.5 136.867 15.5 137.143H16.5ZM15.5 60V62.8571H16.5V60H15.5ZM15.5 68.5714V74.2857H16.5L16.5 68.5714H15.5ZM15.5 80L15.5 85.7143H16.5V80H15.5ZM15.5 91.4286L15.5 97.1429H16.5V91.4286H15.5ZM15.5 102.857L15.5 108.571H16.5V102.857H15.5ZM15.5 114.286V120H16.5V114.286H15.5ZM15.5 125.714V131.429H16.5L16.5 125.714H15.5ZM15.5 137.143V140H16.5V137.143H15.5ZM17 60C17 59.4477 16.5523 59 16 59C15.4477 59 15 59.4477 15 60H17ZM16 145.774L21.7735 140L16 134.226L10.2265 140L16 145.774ZM15 62.8571C15 63.4094 15.4477 63.8571 16 63.8571C16.5523 63.8571 17 63.4094 17 62.8571H15ZM17 68.5714C17 68.0191 16.5523 67.5714 16 67.5714C15.4477 67.5714 15 68.0191 15 68.5714H17ZM15 74.2857C15 74.838 15.4477 75.2857 16 75.2857C16.5523 75.2857 17 74.838 17 74.2857H15ZM17 80C17 79.4477 16.5523 79 16 79C15.4477 79 15 79.4477 15 80H17ZM15 85.7143C15 86.2666 15.4477 86.7143 16 86.7143C16.5523 86.7143 17 86.2666 17 85.7143H15ZM17 91.4286C17 90.8763 16.5523 90.4286 16 90.4286C15.4477 90.4286 15 90.8763 15 91.4286H17ZM15 97.1429C15 97.6951 15.4477 98.1429 16 98.1429C16.5523 98.1429 17 97.6951 17 97.1429H15ZM17 102.857C17 102.305 16.5523 101.857 16 101.857C15.4477 101.857 15 102.305 15 102.857H17ZM15 108.571C15 109.124 15.4477 109.571 16 109.571C16.5523 109.571 17 109.124 17 108.571H15ZM17 114.286C17 113.733 16.5523 113.286 16 113.286C15.4477 113.286 15 113.733 15 114.286H17ZM15 120C15 120.552 15.4477 121 16 121C16.5523 121 17 120.552 17 120H15ZM17 125.714C17 125.162 16.5523 124.714 16 124.714C15.4477 124.714 15 125.162 15 125.714H17ZM15 131.429C15 131.981 15.4477 132.429 16 132.429C16.5523 132.429 17 131.981 17 131.429H15ZM17 137.143C17 136.591 16.5523 136.143 16 136.143C15.4477 136.143 15 136.591 15 137.143H17ZM15 60V62.8571H17V60H15ZM15 68.5714V74.2857H17L17 68.5714H15ZM15 80L15 85.7143H17V80H15ZM15 91.4286L15 97.1429H17V91.4286H15ZM15 102.857L15 108.571H17V102.857H15ZM15 114.286V120H17V114.286H15ZM15 125.714V131.429H17L17 125.714H15ZM15 137.143V140H17V137.143H15Z" fill="white"/>
<defs>
<clipPath id="clip0_519_795">
<rect width="32" height="44" fill="white"/>
</clipPath>
</defs>
</symbol>


<symbol id="vertical">
<path d="M6.5 1C6.5 0.723858 6.27614 0.5 6 0.5C5.72386 0.5 5.5 0.723858 5.5 1L6.5 1ZM6 83.8867L8.88675 81L6 78.1132L3.11325 81L6 83.8867ZM5.5 3.85714C5.5 4.13329 5.72386 4.35714 6 4.35714C6.27614 4.35714 6.5 4.13329 6.5 3.85714H5.5ZM6.5 9.57143C6.5 9.29528 6.27614 9.07143 6 9.07143C5.72386 9.07143 5.5 9.29528 5.5 9.57143H6.5ZM5.5 15.2857C5.5 15.5619 5.72386 15.7857 6 15.7857C6.27614 15.7857 6.5 15.5619 6.5 15.2857H5.5ZM6.5 21C6.5 20.7239 6.27614 20.5 6 20.5C5.72386 20.5 5.5 20.7239 5.5 21H6.5ZM5.5 26.7143C5.5 26.9904 5.72386 27.2143 6 27.2143C6.27614 27.2143 6.5 26.9904 6.5 26.7143H5.5ZM6.5 32.4286C6.5 32.1524 6.27614 31.9286 6 31.9286C5.72386 31.9286 5.5 32.1524 5.5 32.4286H6.5ZM5.5 38.1429C5.5 38.419 5.72386 38.6429 6 38.6429C6.27614 38.6429 6.5 38.419 6.5 38.1429H5.5ZM6.5 43.8571C6.5 43.581 6.27614 43.3571 6 43.3571C5.72386 43.3571 5.5 43.581 5.5 43.8571H6.5ZM5.5 49.5714C5.5 49.8476 5.72386 50.0714 6 50.0714C6.27614 50.0714 6.5 49.8476 6.5 49.5714H5.5ZM6.5 55.2857C6.5 55.0096 6.27614 54.7857 6 54.7857C5.72386 54.7857 5.5 55.0096 5.5 55.2857H6.5ZM5.5 61C5.5 61.2761 5.72386 61.5 6 61.5C6.27614 61.5 6.5 61.2761 6.5 61H5.5ZM6.5 66.7143C6.5 66.4381 6.27614 66.2143 6 66.2143C5.72386 66.2143 5.5 66.4381 5.5 66.7143H6.5ZM5.5 72.4286C5.5 72.7047 5.72386 72.9286 6 72.9286C6.27614 72.9286 6.5 72.7047 6.5 72.4286H5.5ZM6.5 78.1429C6.5 77.8667 6.27614 77.6429 6 77.6429C5.72386 77.6429 5.5 77.8667 5.5 78.1429H6.5ZM5.5 1V3.85714H6.5V1L5.5 1ZM5.5 9.57143L5.5 15.2857H6.5L6.5 9.57143H5.5ZM5.5 21L5.5 26.7143H6.5L6.5 21H5.5ZM5.5 32.4286V38.1429H6.5V32.4286H5.5ZM5.5 43.8571L5.5 49.5714H6.5L6.5 43.8571H5.5ZM5.5 55.2857L5.5 61H6.5L6.5 55.2857H5.5ZM5.5 66.7143V72.4286H6.5V66.7143H5.5ZM5.5 78.1429L5.5 81H6.5L6.5 78.1429H5.5ZM7 1C7 0.447715 6.55228 5.96046e-08 6 5.96046e-08C5.44772 5.96046e-08 5 0.447715 5 1L7 1ZM6 86.7735L11.7735 81L6 75.2265L0.226498 81L6 86.7735ZM5 3.85714C5 4.40943 5.44772 4.85714 6 4.85714C6.55228 4.85714 7 4.40943 7 3.85714H5ZM7 9.57143C7 9.01914 6.55228 8.57143 6 8.57143C5.44772 8.57143 5 9.01914 5 9.57143H7ZM5 15.2857C5 15.838 5.44772 16.2857 6 16.2857C6.55228 16.2857 7 15.838 7 15.2857H5ZM7 21C7 20.4477 6.55228 20 6 20C5.44772 20 5 20.4477 5 21H7ZM5 26.7143C5 27.2666 5.44772 27.7143 6 27.7143C6.55228 27.7143 7 27.2666 7 26.7143H5ZM7 32.4286C7 31.8763 6.55228 31.4286 6 31.4286C5.44772 31.4286 5 31.8763 5 32.4286H7ZM5 38.1429C5 38.6951 5.44772 39.1429 6 39.1429C6.55228 39.1429 7 38.6951 7 38.1429H5ZM7 43.8571C7 43.3049 6.55228 42.8571 6 42.8571C5.44772 42.8571 5 43.3049 5 43.8571H7ZM5 49.5714C5 50.1237 5.44772 50.5714 6 50.5714C6.55228 50.5714 7 50.1237 7 49.5714H5ZM7 55.2857C7 54.7334 6.55228 54.2857 6 54.2857C5.44772 54.2857 5 54.7334 5 55.2857H7ZM5 61C5 61.5523 5.44772 62 6 62C6.55228 62 7 61.5523 7 61H5ZM7 66.7143C7 66.162 6.55228 65.7143 6 65.7143C5.44772 65.7143 5 66.162 5 66.7143H7ZM5 72.4286C5 72.9809 5.44772 73.4286 6 73.4286C6.55228 73.4286 7 72.9809 7 72.4286H5ZM7 78.1429C7 77.5906 6.55228 77.1429 6 77.1429C5.44772 77.1429 5 77.5906 5 78.1429H7ZM5 1V3.85714H7V1L5 1ZM5 9.57143L5 15.2857H7L7 9.57143H5ZM5 21L5 26.7143H7L7 21H5ZM5 32.4286L5 38.1429H7L7 32.4286H5ZM5 43.8571L5 49.5714H7L7 43.8571H5ZM5 55.2857L5 61H7L7 55.2857H5ZM5 66.7143V72.4286H7V66.7143H5ZM5 78.1429L5 81H7L7 78.1429H5Z" fill="white"/>
</symbol>


<symbol id='linehorizontal' width="240" height="12" viewBox="0 0 240 12" fill="none" xmlns="http://www.w3.org/2000/svg">
<path d="M0.666667 6C0.666667 8.94552 3.05448 11.3333 6 11.3333C8.94552 11.3333 11.3333 8.94552 11.3333 6C11.3333 3.05448 8.94552 0.666667 6 0.666667C3.05448 0.666667 0.666667 3.05448 0.666667 6ZM228.667 6C228.667 8.94552 231.054 11.3333 234 11.3333C236.946 11.3333 239.333 8.94552 239.333 6C239.333 3.05448 236.946 0.666667 234 0.666667C231.054 0.666667 228.667 3.05448 228.667 6ZM6 6V7H234V6V5H6V6Z" fill="#12F7D6"/>
</symbol>

<symbol id='send'>
<path fill-rule="evenodd" clip-rule="evenodd" d="M21.7071 0.292921C21.9306 0.516405 22.0262 0.81935 21.9939 1.11081C21.9848 1.19252 21.9657 1.27332 21.9366 1.35121L14.9439 21.3304C14.8084 21.7174 14.4504 21.9825 14.0408 21.9992C13.6311 22.0159 13.2527 21.7808 13.0862 21.4062L9.2424 12.7576L0.593867 8.91384C0.219186 8.74731 -0.0158775 8.36894 0.000836285 7.95926C0.0175501 7.54959 0.282654 7.19162 0.669655 7.05617L20.6488 0.0634782C20.7272 0.0341359 20.8085 0.0149704 20.8907 0.00598197C20.9511 -0.000661909 21.0117 -0.00173777 21.0717 0.00258598C21.3032 0.0191289 21.5301 0.115907 21.7071 0.292921ZM17.1943 3.3915L3.71108 8.11063L9.77854 10.8073L17.1943 3.3915ZM11.1928 12.2215L18.6085 4.80571L13.8894 18.289L11.1928 12.2215Z" fill="#292F36"/>
</symbol>


<symbol id='prev'>
<rect x="0.49295" width="72" height="72" rx="36" fill="#292F36"/>
<path d="M33.8499 35.9999L42.6714 27.1784C43.3223 26.5276 43.3223 25.4723 42.6714 24.8214C42.0205 24.1705 40.9653 24.1705 40.3144 24.8214L30.3144 34.8214C29.6635 35.4723 29.6635 36.5276 30.3144 37.1784L40.3144 47.1784C40.9653 47.8293 42.0205 47.8293 42.6714 47.1784C43.3223 46.5276 43.3223 45.4723 42.6714 44.8214L33.8499 35.9999Z" fill="white"/>
</symbol>

<symbol id="next">
<rect x="0.50708" width="72" height="72" rx="36" fill="#292F36"/>
<path d="M32.6856 24.8214C32.0348 24.1705 30.9795 24.1705 30.3286 24.8214C29.6777 25.4723 29.6777 26.5276 30.3286 27.1784L39.1501 35.9999L30.3286 44.8214C29.6777 45.4723 29.6777 46.5276 30.3286 47.1784C30.9795 47.8293 32.0348 47.8293 32.6856 47.1784L42.6856 37.1784C43.3365 36.5276 43.3365 35.4723 42.6856 34.8214L32.6856 24.8214Z" fill="white"/>
</symbol>

<symbol id="download" width="20" height="20" viewBox="0 0 20 20" fill="none" xmlns="http://www.w3.org/2000/svg">
<path d="M11 1C11 0.447715 10.5523 0 10 0C9.44771 0 9 0.447715 9 1V10.5858L5.70711 7.29289C5.31658 6.90237 4.68342 6.90237 4.29289 7.29289C3.90237 7.68342 3.90237 8.31658 4.29289 8.70711L9.29289 13.7071C9.68342 14.0976 10.3166 14.0976 10.7071 13.7071L15.7071 8.70711C16.0976 8.31658 16.0976 7.68342 15.7071 7.29289C15.3166 6.90237 14.6834 6.90237 14.2929 7.29289L11 10.5858V1Z" fill="#292F36"/>
<path d="M1 12C1.55228 12 2 12.4477 2 13V17C2 17.2652 2.10536 17.5196 2.29289 17.7071C2.48043 17.8946 2.73478 18 3 18H17C17.2652 18 17.5196 17.8946 17.7071 17.7071C17.8946 17.5196 18 17.2652 18 17V13C18 12.4477 18.4477 12 19 12C19.5523 12 20 12.4477 20 13V17C20 17.7957 19.6839 18.5587 19.1213 19.1213C18.5587 19.6839 17.7957 20 17 20H3C2.20435 20 1.44129 19.6839 0.87868 19.1213C0.31607 18.5587 0 17.7957 0 17V13C0 12.4477 0.447715 12 1 12Z" fill="#292F36"/>
</symbol>


</svg>
